<svg width="28" height="33" viewBox="0 0 28 33" fill="none" xmlns="http://www.w3.org/2000/svg">
<path d="M22.6535 17.4511C22.686 14.9296 24.0401 12.5437 26.1883 11.223C24.8331 9.28753 22.5632 8.06038 20.2016 7.9865C17.6827 7.72211 15.2408 9.49374 13.9572 9.49374C12.6488 9.49374 10.6726 8.01274 8.54449 8.05653C5.77061 8.14615 3.18466 9.72322 1.83511 12.1483C-1.06589 17.171 1.09799 24.5525 3.87691 28.6125C5.26726 30.6005 6.89218 32.8212 9.01835 32.7424C11.0989 32.6561 11.876 31.4157 14.3875 31.4157C16.8756 31.4157 17.6046 32.7424 19.774 32.6923C22.0065 32.6561 23.4131 30.6955 24.7547 28.6886C25.7537 27.2721 26.5224 25.7065 27.0323 24.0499C24.4087 22.9402 22.6566 20.2998 22.6535 17.4511Z" fill="#F17228"/>
<path d="M18.556 5.3165C19.7733 3.85518 20.373 1.97692 20.2278 0.0805664C18.368 0.275897 16.6501 1.16474 15.4164 2.56998C14.21 3.94298 13.5821 5.7882 13.7008 7.61207C15.5613 7.63122 17.3902 6.76648 18.556 5.3165Z" fill="#F17228"/>
</svg>
