<svg width="153" height="192" viewBox="0 0 153 192" fill="none" xmlns="http://www.w3.org/2000/svg">
<g filter="url(#filter0_dd_248_165)">
<path d="M43.6875 21H109.312C110.574 21 111.594 22.0198 111.594 23.2812V128.718C111.594 129.582 111.104 130.368 110.343 130.753L110.187 130.825L110.182 130.827C109.36 131.173 108.365 130.995 107.7 130.33C105.052 127.682 100.809 127.599 98.0615 130.082L97.8008 130.33C96.9654 131.165 95.6442 131.218 94.748 130.487L94.5752 130.33C91.927 127.682 87.6843 127.599 84.9365 130.082L84.6758 130.33C83.8404 131.165 82.5192 131.218 81.623 130.487L81.4502 130.33C78.802 127.682 74.5593 127.599 71.8115 130.082L71.5508 130.33C70.7154 131.165 69.3942 131.218 68.498 130.487L68.3252 130.33C65.677 127.682 61.4343 127.599 58.6865 130.082L58.4258 130.33C57.5904 131.165 56.2692 131.218 55.373 130.487L55.2002 130.33C52.5521 127.682 48.3093 127.599 45.5615 130.082L45.3008 130.33C44.6851 130.946 43.7806 131.153 42.9766 130.886L42.8174 130.826L42.8135 130.824L42.6582 130.753C41.8967 130.369 41.4064 129.582 41.4062 128.718V23.2812C41.4062 22.0199 42.4261 21 43.6875 21Z" fill="url(#paint0_linear_248_165)" stroke="url(#paint1_linear_248_165)" stroke-width="2"/>
<path d="M76.5005 55.303C74.6932 55.303 73.2192 53.8321 73.2192 52.0217C73.2192 50.2114 74.6932 48.7405 76.5005 48.7405C78.3078 48.7405 79.7817 50.2114 79.7817 52.0217C79.7817 53.8354 81.2493 55.303 83.063 55.303C84.8766 55.303 86.3442 53.8354 86.3442 52.0217C86.3442 47.7495 83.5932 44.1415 79.7817 42.7824V38.8967C79.7817 37.0831 78.3141 35.6155 76.5005 35.6155C74.6868 35.6155 73.2192 37.0831 73.2192 38.8967V42.7824C69.4077 44.1415 66.6567 47.7495 66.6567 52.0217C66.6567 57.4498 71.0724 61.8655 76.5005 61.8655C78.3078 61.8655 79.7817 63.3364 79.7817 65.1467C79.7817 66.9571 78.3078 68.428 76.5005 68.428C74.6932 68.428 73.2192 66.9571 73.2192 65.1467C73.2192 63.3331 71.7516 61.8655 69.938 61.8655C68.1243 61.8655 66.6567 63.3331 66.6567 65.1467C66.6567 69.4189 69.4077 73.027 73.2192 74.3861V78.2717C73.2192 80.0854 74.6868 81.553 76.5005 81.553C78.3141 81.553 79.7817 80.0854 79.7817 78.2717V74.3861C83.5932 73.0272 86.3442 69.4189 86.3442 65.1467C86.3442 59.7187 81.9288 55.303 76.5005 55.303ZM76.5005 88.1155H56.813C54.9993 88.1155 53.5317 89.5831 53.5317 91.3967C53.5317 93.2104 54.9993 94.678 56.813 94.678H76.5005C78.3141 94.678 79.7817 93.2104 79.7817 91.3967C79.7817 89.5831 78.3141 88.1155 76.5005 88.1155ZM76.5005 101.24H56.813C54.9993 101.24 53.5317 102.708 53.5317 104.522C53.5317 106.335 54.9993 107.803 56.813 107.803H76.5005C78.3141 107.803 79.7817 106.335 79.7817 104.522C79.7817 102.708 78.3141 101.24 76.5005 101.24ZM89.6255 94.678H96.188C98.0016 94.678 99.4692 93.2104 99.4692 91.3967C99.4692 89.5831 98.0016 88.1155 96.188 88.1155H89.6255C87.8118 88.1155 86.3442 89.5831 86.3442 91.3967C86.3442 93.2104 87.8118 94.678 89.6255 94.678ZM96.188 101.24H89.6255C87.8118 101.24 86.3442 102.708 86.3442 104.522C86.3442 106.335 87.8118 107.803 89.6255 107.803H96.188C98.0016 107.803 99.4692 106.335 99.4692 104.522C99.4692 102.708 98.0016 101.24 96.188 101.24Z" fill="white"/>
</g>
<defs>
<filter id="filter0_dd_248_165" x="0.40625" y="0" width="152.188" height="192" filterUnits="userSpaceOnUse" color-interpolation-filters="sRGB">
<feFlood flood-opacity="0" result="BackgroundImageFix"/>
<feColorMatrix in="SourceAlpha" type="matrix" values="0 0 0 0 0 0 0 0 0 0 0 0 0 0 0 0 0 0 127 0" result="hardAlpha"/>
<feOffset dy="20"/>
<feGaussianBlur stdDeviation="20"/>
<feColorMatrix type="matrix" values="0 0 0 0 1 0 0 0 0 0.680498 0 0 0 0 0 0 0 0 0.29 0"/>
<feBlend mode="normal" in2="BackgroundImageFix" result="effect1_dropShadow_248_165"/>
<feColorMatrix in="SourceAlpha" type="matrix" values="0 0 0 0 0 0 0 0 0 0 0 0 0 0 0 0 0 0 127 0" result="hardAlpha"/>
<feOffset dy="5"/>
<feGaussianBlur stdDeviation="5"/>
<feColorMatrix type="matrix" values="0 0 0 0 1 0 0 0 0 0.680498 0 0 0 0 0 0 0 0 0.26 0"/>
<feBlend mode="normal" in2="effect1_dropShadow_248_165" result="effect2_dropShadow_248_165"/>
<feBlend mode="normal" in="SourceGraphic" in2="effect2_dropShadow_248_165" result="shape"/>
</filter>
<linearGradient id="paint0_linear_248_165" x1="76.5001" y1="-22.8026" x2="76.5001" y2="169.452" gradientUnits="userSpaceOnUse">
<stop offset="0.630208" stop-color="#FFAE00"/>
<stop offset="1" stop-color="#FFCD1E"/>
</linearGradient>
<linearGradient id="paint1_linear_248_165" x1="76.5001" y1="20" x2="76.5001" y2="132" gradientUnits="userSpaceOnUse">
<stop stop-color="#FF9F00"/>
<stop offset="1" stop-color="#FFB800"/>
</linearGradient>
</defs>
</svg>
