<svg width="36" height="40" viewBox="0 0 36 40" fill="none" xmlns="http://www.w3.org/2000/svg">
<path d="M26.231 26.5933L4.771 38.7896C3.70439 39.3944 2.73806 39.4331 2.04541 39.0113L20.3462 20.7085L26.231 26.5933ZM19.6392 20.0015L1.354 38.2886C1.1023 37.8506 0.959473 37.2786 0.959473 36.5884V3.41458C0.95949 2.72591 1.10158 2.15357 1.35303 1.71536L19.6392 20.0015ZM34.0229 17.8374C36.1181 19.0284 36.1182 20.977 34.0229 22.1695L27.1343 26.0826L21.0522 20.0005L27.1313 13.9204L34.0229 17.8374ZM2.04346 0.991731C2.73615 0.569234 3.70408 0.609157 4.771 1.21536L26.229 13.4087L20.3452 19.2935L2.04346 0.991731Z" fill="#F17228"/>
</svg>
