<svg width="19" height="19" viewBox="0 0 19 19" fill="none" xmlns="http://www.w3.org/2000/svg">
<path d="M0 9.14453V1.9375C0 1.02344 0.738281 0.25 1.6875 0.25H8.85938C9.31641 0.25 9.73828 0.460938 10.0547 0.777344L17.4727 8.19531C18.1406 8.86328 18.1406 9.95312 17.4727 10.5859L10.3008 17.7578C9.66797 18.4258 8.57812 18.4258 7.91016 17.7578L0.492188 10.3398C0.175781 10.0234 0 9.60156 0 9.14453ZM3.9375 2.5C2.98828 2.5 2.25 3.27344 2.25 4.1875C2.25 5.13672 2.98828 5.875 3.9375 5.875C4.85156 5.875 5.625 5.13672 5.625 4.1875C5.625 3.27344 4.85156 2.5 3.9375 2.5Z" fill="white"/>
</svg>
