<svg width="73" height="112" viewBox="0 0 73 112" fill="none" xmlns="http://www.w3.org/2000/svg">
<path d="M3.6875 1H69.3125C70.5738 1 71.5935 2.01982 71.5938 3.28125V108.718C71.5937 109.582 71.1039 110.368 70.3428 110.753L70.1865 110.825L70.1816 110.827C69.3598 111.173 68.3648 110.995 67.7002 110.33C65.052 107.682 60.8093 107.599 58.0615 110.082L57.8008 110.33C56.9654 111.165 55.6442 111.218 54.748 110.487L54.5752 110.33C51.927 107.682 47.6843 107.599 44.9365 110.082L44.6758 110.33C43.8404 111.165 42.5192 111.218 41.623 110.487L41.4502 110.33C38.802 107.682 34.5593 107.599 31.8115 110.082L31.5508 110.33C30.7154 111.165 29.3942 111.218 28.498 110.487L28.3252 110.33C25.677 107.682 21.4343 107.599 18.6865 110.082L18.4258 110.33C17.5904 111.165 16.2692 111.218 15.373 110.487L15.2002 110.33C12.5521 107.682 8.30933 107.599 5.56152 110.082L5.30078 110.33C4.68515 110.946 3.78056 111.153 2.97656 110.886L2.81738 110.826L2.81348 110.824L2.6582 110.753C1.89673 110.369 1.40638 109.582 1.40625 108.718V3.28125C1.40625 2.01988 2.42613 1 3.6875 1Z" fill="url(#paint0_linear_248_171)" stroke="url(#paint1_linear_248_171)" stroke-width="2"/>
<defs>
<linearGradient id="paint0_linear_248_171" x1="36.5001" y1="-42.8026" x2="36.5001" y2="149.452" gradientUnits="userSpaceOnUse">
<stop offset="0.630208" stop-color="#FFAE00"/>
<stop offset="1" stop-color="#FFCD1E"/>
</linearGradient>
<linearGradient id="paint1_linear_248_171" x1="36.5001" y1="0" x2="36.5001" y2="112" gradientUnits="userSpaceOnUse">
<stop stop-color="#FF9F00"/>
<stop offset="1" stop-color="#FFB800"/>
</linearGradient>
</defs>
</svg>
