<svg width="18" height="18" viewBox="0 0 18 18" fill="none" xmlns="http://www.w3.org/2000/svg">
<path d="M9 0.53125C13.8164 0.53125 17.7188 4.43359 17.7188 9.25C17.7188 14.0664 13.8164 17.9688 9 17.9688C4.18359 17.9688 0.28125 14.0664 0.28125 9.25C0.28125 4.43359 4.18359 0.53125 9 0.53125ZM12.2344 11.5352C12.3047 11.4648 12.375 11.3242 12.375 11.1836C12.375 11.0078 12.2695 10.8672 12.1641 10.7617L10.125 9.25V4.1875C10.125 3.90625 9.84375 3.625 9.5625 3.625H8.4375C8.12109 3.625 7.875 3.90625 7.875 4.1875V9.67188C7.875 10.1289 8.05078 10.5156 8.40234 10.7617L10.7578 12.5195C10.8281 12.5898 10.9688 12.6602 11.0742 12.6602C11.2852 12.6602 11.4258 12.5547 11.5312 12.4141L12.2344 11.5352Z" fill="white"/>
</svg>
